<svg xmlns="http://www.w3.org/2000/svg" width="16" height="16">
    <path fill="#FFF" fill-rule="evenodd" d="M8.081 3.824a3.83 3.83 0 0 1 2.007.555l.676.456.43.315 2.751-2.755-.537-.455-1.146-.775a.477.477 0 0 0-.073-.042l-1.11-.541A8.243 8.243 0 0 0 8.04.001a8.084 8.084 0 0 0-5.642 2.265C.86 3.749.005 5.765-.009 7.943c-.015 2.179.812 4.207 2.33 5.71 1.506 1.492 3.643 2.348 5.862 2.348 2.196 0 4.256-.841 5.653-2.308 1.106-1.161 1.784-2.712 1.963-4.486a.42.42 0 0 0 .003-.05l.02-1.594a.901.901 0 0 0-.007-.098l-.021-1.054-.653.013H8.259l-.595.013v3.496l.595.013h3.508c-.16.348-.414.715-.734 1.056-.699.745-1.741 1.173-2.859 1.173-1.142 0-2.236-.441-3-1.211-1.593-1.601-1.574-4.391.038-5.97a4.137 4.137 0 0 1 2.869-1.17z"/>
</svg>
