<svg xmlns="http://www.w3.org/2000/svg" width="14" height="14">
    <path fill="#FFF" fill-rule="evenodd" d="M10.136 13.999H3.863A3.867 3.867 0 0 1 0 10.136V3.863A3.868 3.868 0 0 1 3.863-.001h6.273A3.869 3.869 0 0 1 14 3.863v6.273a3.868 3.868 0 0 1-3.864 3.863zm2.622-3.863V3.863a2.624 2.624 0 0 0-2.622-2.621H3.863a2.624 2.624 0 0 0-2.621 2.621v6.273a2.624 2.624 0 0 0 2.621 2.621h6.273a2.624 2.624 0 0 0 2.622-2.621zm-1.999-5.975a.918.918 0 0 1-.644-.267.912.912 0 1 1 1.555-.644.917.917 0 0 1-.267.644.92.92 0 0 1-.644.267zM7 10.607a3.612 3.612 0 0 1-3.608-3.608A3.612 3.612 0 0 1 7 3.392a3.612 3.612 0 0 1 3.607 3.607A3.611 3.611 0 0 1 7 10.607zm0-5.973a2.368 2.368 0 0 0-2.365 2.365A2.368 2.368 0 0 0 7 9.365a2.368 2.368 0 0 0 2.365-2.366A2.368 2.368 0 0 0 7 4.634z"/>
</svg>
