<svg xmlns="http://www.w3.org/2000/svg" width="20" height="14">
    <path fill="#FFF" fill-rule="evenodd" d="M17.17 5.861c1.062-.086 1.781-.563 2.059-1.211-.383.232-1.572.486-2.228.245a7.154 7.154 0 0 0-.104-.429c-.5-1.816-2.212-3.279-4.006-3.103.145-.058.292-.112.439-.16.197-.071 1.356-.257 1.174-.661-.154-.356-1.57.268-1.836.35.351-.131.933-.355.996-.756a2.824 2.824 0 0 0-1.477.692c.147-.157.259-.349.283-.555-1.438.909-2.278 2.74-2.958 4.517-.533-.511-1.006-.914-1.431-1.138-1.19-.631-2.614-1.29-4.848-2.111-.069.732.365 1.704 1.616 2.35-.271-.035-.766.045-1.163.139.162.837.689 1.528 2.117 1.861-.653.043-.99.19-1.296.507.298.582 1.023 1.268 2.327 1.127-1.45.618-.591 1.764.589 1.593-2.013 2.056-5.187 1.905-7.009.185 4.758 6.414 15.101 3.793 16.643-2.385 1.154.01 1.833-.395 2.254-.842-.665.112-1.629-.004-2.141-.215z"/>
</svg>
