<svg 
 xmlns="http://www.w3.org/2000/svg"
 xmlns:xlink="http://www.w3.org/1999/xlink"
 width="14px" height="11px">
<path fill-rule="evenodd"  fill="rgb(114, 114, 114)"
 d="M11.751,9.300 L11.751,10.885 L10.599,10.885 L10.599,9.300 L2.734,9.300 L2.734,10.885 L1.583,10.885 L1.583,9.300 L0.241,9.300 L0.241,8.150 L13.093,8.150 L13.093,9.300 L11.751,9.300 ZM1.681,5.203 L1.681,1.087 L2.257,0.511 L11.076,0.511 L11.652,1.087 L11.652,5.203 L13.067,7.441 L0.266,7.441 L1.681,5.203 ZM2.833,4.534 C3.575,4.343 4.857,4.106 6.667,4.106 C8.476,4.106 9.758,4.343 10.500,4.534 L10.500,1.661 L2.833,1.661 L2.833,4.534 ZM7.134,3.507 L7.134,2.837 C7.134,2.438 7.712,2.116 8.425,2.116 C9.138,2.116 9.716,2.438 9.716,2.837 L9.716,3.843 C9.716,3.843 8.954,3.651 8.431,3.602 C7.960,3.557 7.134,3.507 7.134,3.507 ZM3.617,3.843 L3.617,2.837 C3.617,2.438 4.195,2.116 4.908,2.116 C5.621,2.116 6.199,2.438 6.199,2.837 L6.199,3.507 C6.199,3.507 5.374,3.557 4.902,3.602 C4.379,3.651 3.617,3.843 3.617,3.843 Z"/>
</svg>