<svg 
 xmlns="http://www.w3.org/2000/svg"
 xmlns:xlink="http://www.w3.org/1999/xlink"
 width="15px" height="31px">
<path fill-rule="evenodd"  fill="rgb(154, 162, 170)"
 d="M3.944,6.010 C3.944,6.790 3.944,10.274 3.944,10.274 L0.897,10.274 L0.897,15.488 L3.944,15.488 L3.944,30.984 L10.203,30.984 L10.203,15.488 L14.403,15.488 C14.403,15.488 14.797,12.989 14.988,10.254 C14.441,10.254 10.227,10.254 10.227,10.254 C10.227,10.254 10.227,7.221 10.227,6.690 C10.227,6.157 10.909,5.440 11.584,5.440 C12.257,5.440 13.678,5.440 14.994,5.440 C14.994,4.730 14.994,2.277 14.994,0.011 C13.237,0.011 11.238,0.011 10.357,0.011 C3.789,0.011 3.944,5.230 3.944,6.010 Z"/>
</svg>