<svg 
 xmlns="http://www.w3.org/2000/svg"
 xmlns:xlink="http://www.w3.org/1999/xlink"
 width="27px" height="29px">
<path fill-rule="evenodd"  fill="rgb(154, 162, 170)"
 d="M13.615,7.257 C14.777,7.257 15.894,7.585 16.847,8.204 L17.935,8.982 L18.629,9.519 L23.059,4.821 L22.194,4.045 L20.349,2.723 C20.311,2.696 20.272,2.672 20.231,2.652 L18.443,1.730 C18.420,1.717 18.395,1.706 18.371,1.696 C16.831,1.061 15.209,0.739 13.549,0.739 C10.128,0.739 6.901,2.111 4.462,4.600 C1.986,7.128 0.609,10.566 0.585,14.281 C0.561,17.996 1.894,21.454 4.338,24.018 C6.764,26.561 10.205,28.020 13.779,28.020 C17.316,28.020 20.634,26.586 22.883,24.086 C24.664,22.105 25.757,19.460 26.044,16.436 C26.047,16.408 26.049,16.379 26.049,16.350 L26.082,13.633 C26.083,13.577 26.071,13.466 26.071,13.466 L26.036,11.667 L24.984,11.691 L13.902,11.691 L12.943,11.714 L12.943,17.674 L13.902,17.697 L19.552,17.697 C19.293,18.290 18.885,18.914 18.369,19.497 C17.243,20.768 15.565,21.497 13.764,21.497 C11.925,21.497 10.164,20.745 8.932,19.433 C6.368,16.702 6.398,11.944 8.995,9.252 C10.218,7.984 11.902,7.257 13.615,7.257 Z"/>
</svg>