<svg 
 xmlns="http://www.w3.org/2000/svg"
 xmlns:xlink="http://www.w3.org/1999/xlink"
 width="32px" height="31px">
<path fill-rule="evenodd"  fill="rgb(154, 162, 170)"
 d="M23.100,31.000 L9.170,31.000 C4.439,31.000 0.590,27.166 0.590,22.453 L0.590,8.576 C0.590,3.863 4.439,0.029 9.170,0.029 L23.100,0.029 C27.831,0.029 31.679,3.863 31.679,8.576 L31.679,22.453 C31.679,27.165 27.831,31.000 23.100,31.000 ZM28.921,22.453 L28.921,8.576 C28.921,5.378 26.309,2.777 23.100,2.777 L9.170,2.777 C5.960,2.777 3.349,5.378 3.349,8.576 L3.349,22.453 C3.349,25.650 5.960,28.252 9.170,28.252 L23.100,28.252 C26.310,28.252 28.921,25.650 28.921,22.453 L28.921,22.453 ZM24.482,9.234 C23.950,9.234 23.428,9.018 23.053,8.645 C22.676,8.269 22.459,7.749 22.459,7.219 C22.459,6.688 22.676,6.168 23.053,5.794 C23.428,5.418 23.950,5.204 24.482,5.204 C25.015,5.204 25.537,5.418 25.912,5.794 C26.289,6.168 26.504,6.688 26.504,7.219 C26.504,7.749 26.289,8.269 25.912,8.645 C25.535,9.018 25.015,9.234 24.482,9.234 ZM16.135,23.495 C11.718,23.495 8.124,19.915 8.124,15.514 C8.124,11.114 11.718,7.534 16.135,7.534 C20.552,7.534 24.146,11.114 24.146,15.514 C24.146,19.915 20.552,23.495 16.135,23.495 ZM16.135,10.282 C13.239,10.282 10.882,12.629 10.882,15.514 C10.882,18.399 13.239,20.747 16.135,20.747 C19.031,20.747 21.387,18.399 21.387,15.514 C21.387,12.629 19.031,10.282 16.135,10.282 Z"/>
</svg>