<svg 
 xmlns="http://www.w3.org/2000/svg"
 xmlns:xlink="http://www.w3.org/1999/xlink"
 width="12px" height="12px">
<path fill-rule="evenodd"  fill="rgb(114, 114, 114)"
 d="M11.333,8.316 L3.781,8.316 L3.781,0.610 C3.781,0.351 3.576,0.141 3.323,0.141 L1.244,0.141 C0.990,0.141 0.785,0.351 0.785,0.610 L0.785,1.078 L1.457,1.078 C1.559,1.078 1.641,1.161 1.641,1.264 C1.641,1.368 1.559,1.452 1.457,1.452 L0.785,1.452 L0.785,2.425 L1.457,2.425 C1.559,2.425 1.641,2.509 1.641,2.613 C1.641,2.716 1.559,2.800 1.457,2.800 L0.785,2.800 L0.785,3.774 L1.457,3.774 C1.559,3.774 1.641,3.856 1.641,3.960 C1.641,4.064 1.559,4.147 1.457,4.147 L0.785,4.147 L0.785,5.121 L1.457,5.121 C1.559,5.121 1.641,5.204 1.641,5.308 C1.641,5.412 1.559,5.495 1.457,5.495 L0.785,5.495 L0.785,6.469 L1.457,6.469 C1.559,6.469 1.641,6.552 1.641,6.656 C1.641,6.760 1.559,6.843 1.457,6.843 L0.785,6.843 L0.785,7.816 L1.457,7.816 C1.559,7.816 1.641,7.900 1.641,8.004 C1.641,8.107 1.559,8.191 1.457,8.191 L0.785,8.191 L0.785,8.316 L0.785,10.905 C0.785,11.164 0.990,11.373 1.244,11.373 L3.781,11.373 L3.903,11.373 L3.903,10.687 C3.903,10.584 3.985,10.500 4.087,10.500 C4.188,10.500 4.270,10.584 4.270,10.687 L4.270,11.373 L5.224,11.373 L5.224,10.687 C5.224,10.584 5.306,10.500 5.407,10.500 C5.509,10.500 5.591,10.584 5.591,10.687 L5.591,11.373 L6.545,11.373 L6.545,10.687 C6.545,10.584 6.627,10.500 6.728,10.500 C6.830,10.500 6.912,10.584 6.912,10.687 L6.912,11.373 L7.866,11.373 L7.866,10.687 C7.866,10.584 7.948,10.500 8.049,10.500 C8.150,10.500 8.232,10.584 8.232,10.687 L8.232,11.373 L9.187,11.373 L9.187,10.687 C9.187,10.584 9.269,10.500 9.370,10.500 C9.471,10.500 9.553,10.584 9.553,10.687 L9.553,11.373 L10.507,11.373 L10.507,10.687 C10.507,10.584 10.589,10.500 10.691,10.500 C10.792,10.500 10.874,10.584 10.874,10.687 L10.874,11.373 L11.333,11.373 C11.586,11.373 11.791,11.164 11.791,10.905 L11.791,8.784 C11.791,8.526 11.586,8.316 11.333,8.316 ZM2.295,10.156 C2.052,10.156 1.855,9.956 1.855,9.708 C1.855,9.460 2.052,9.259 2.295,9.259 C2.538,9.259 2.734,9.460 2.734,9.708 C2.734,9.956 2.538,10.156 2.295,10.156 Z"/>
</svg>