<svg 
 xmlns="http://www.w3.org/2000/svg"
 xmlns:xlink="http://www.w3.org/1999/xlink"
 width="14px" height="13px">
<path fill-rule="evenodd"  fill="rgb(114, 114, 114)"
 d="M13.393,5.686 L13.393,6.729 L0.541,6.729 L0.541,5.686 L2.435,5.686 L2.435,2.435 L2.435,2.319 L2.439,2.319 C2.499,1.379 3.283,0.632 4.239,0.632 C5.233,0.632 6.042,1.440 6.042,2.435 L4.999,2.435 C4.999,2.016 4.658,1.675 4.239,1.675 C3.819,1.675 3.478,2.016 3.478,2.435 L3.478,5.686 L13.393,5.686 ZM12.735,9.822 L12.735,10.052 L12.735,10.284 C12.735,11.017 12.199,11.630 11.499,11.752 L11.499,12.664 L10.455,12.664 L10.455,11.774 L3.478,11.774 L3.478,12.664 L2.435,12.664 L2.435,11.752 C1.735,11.630 1.198,11.017 1.198,10.284 L1.198,10.052 L1.198,9.822 L1.198,7.337 L12.735,7.337 L12.735,9.822 Z"/>
</svg>