<svg 
 xmlns="http://www.w3.org/2000/svg"
 xmlns:xlink="http://www.w3.org/1999/xlink"
 width="31px" height="23px">
<path fill-rule="evenodd"  fill="rgb(154, 162, 170)"
 d="M26.797,10.205 C28.494,10.062 29.645,9.271 30.088,8.198 C29.476,8.583 27.576,9.003 26.527,8.603 C26.475,8.351 26.418,8.110 26.361,7.894 C25.562,4.884 22.824,2.461 19.957,2.753 C20.189,2.657 20.424,2.568 20.658,2.487 C20.974,2.371 22.826,2.062 22.535,1.392 C22.289,0.803 20.026,1.838 19.600,1.973 C20.162,1.756 21.093,1.383 21.192,0.720 C20.330,0.842 19.485,1.260 18.831,1.867 C19.067,1.606 19.246,1.289 19.284,0.947 C16.985,2.453 15.643,5.487 14.556,8.431 C13.703,7.583 12.947,6.916 12.269,6.545 C10.365,5.499 8.090,4.407 4.518,3.048 C4.408,4.259 5.103,5.871 7.103,6.942 C6.669,6.882 5.877,7.015 5.243,7.171 C5.501,8.559 6.344,9.702 8.626,10.255 C7.583,10.325 7.044,10.569 6.556,11.093 C7.031,12.058 8.190,13.194 10.275,12.961 C7.957,13.986 9.330,15.882 11.216,15.599 C7.998,19.006 2.925,18.756 0.012,15.906 C7.618,26.532 24.152,22.190 26.616,11.955 C28.461,11.972 29.547,11.300 30.220,10.560 C29.156,10.745 27.615,10.554 26.797,10.205 Z"/>
</svg>